<svg viewBox="0 0 400 73.25" width="160" height="36" class="sc-bdnxRM kDWlca desktop-icon" color="text" xmlns="http://www.w3.org/2000/svg"><path id="path0" d="M354.298 33.190 C 354.261 33.300,353.577 33.378,352.537 33.393 C 351.602 33.406,350.836 33.463,350.835 33.520 C 350.834 33.577,350.530 33.672,350.160 33.732 C 349.787 33.791,349.443 33.954,349.389 34.096 C 349.335 34.237,349.200 34.318,349.089 34.275 C 348.978 34.233,348.755 34.421,348.594 34.694 C 348.433 34.967,348.258 35.146,348.205 35.094 C 348.152 35.041,347.972 35.204,347.805 35.457 C 347.639 35.710,347.502 35.823,347.501 35.708 C 347.500 35.594,347.422 35.500,347.327 35.500 C 347.210 35.500,347.212 35.607,347.333 35.833 C 347.472 36.093,347.460 36.167,347.279 36.167 C 346.877 36.167,346.833 37.359,346.833 48.440 C 346.833 54.601,346.770 59.167,346.685 59.167 C 346.441 59.167,346.387 60.262,346.620 60.480 C 346.875 60.718,346.903 61.437,346.664 61.585 C 346.571 61.643,346.526 61.741,346.565 61.803 C 346.604 61.866,346.174 61.917,345.610 61.917 C 344.406 61.917,344.190 62.313,344.828 63.353 C 345.018 63.663,345.263 64.123,345.373 64.375 C 345.483 64.627,345.626 64.833,345.691 64.833 C 345.826 64.833,346.333 65.798,346.333 66.054 C 346.333 66.147,346.436 66.342,346.561 66.487 C 346.685 66.632,346.927 67.125,347.097 67.583 C 347.267 68.042,347.469 68.492,347.546 68.583 C 347.623 68.675,347.832 68.996,348.011 69.297 C 348.540 70.190,349.104 70.151,349.406 69.201 C 349.470 68.999,349.638 68.833,349.779 68.833 C 349.939 68.833,349.999 68.739,349.940 68.583 C 349.887 68.446,349.898 68.333,349.965 68.333 C 350.031 68.333,350.185 68.108,350.307 67.833 C 350.481 67.439,350.633 67.333,351.026 67.333 C 351.446 67.333,351.515 67.275,351.470 66.958 C 351.433 66.699,351.313 66.592,351.083 66.613 C 350.789 66.639,350.781 66.619,351.017 66.445 C 351.164 66.337,351.338 66.080,351.404 65.874 C 351.469 65.668,351.592 65.500,351.678 65.500 C 351.763 65.500,351.833 65.386,351.833 65.246 C 351.833 65.106,352.096 64.610,352.417 64.144 C 352.738 63.678,353.000 63.152,353.000 62.976 C 353.000 62.800,353.122 62.610,353.270 62.552 C 353.692 62.391,352.878 61.842,352.208 61.837 C 351.910 61.835,351.667 61.754,351.667 61.656 C 351.667 61.559,351.535 61.492,351.375 61.509 C 351.215 61.525,350.990 61.530,350.875 61.519 C 350.711 61.504,350.667 59.069,350.667 49.951 L 350.667 38.403 351.250 38.138 C 351.571 37.993,351.833 37.940,351.833 38.020 C 351.833 38.101,351.913 38.167,352.011 38.167 C 352.116 38.167,352.143 38.023,352.077 37.814 C 351.968 37.468,351.998 37.463,353.691 37.523 L 355.417 37.583 355.463 35.292 C 355.504 33.254,355.378 32.492,355.119 33.208 C 355.059 33.373,354.971 33.374,354.700 33.214 C 354.465 33.075,354.338 33.068,354.298 33.190 M360.551 33.403 C 360.588 33.517,361.405 33.601,362.761 33.630 C 363.943 33.656,364.965 33.731,365.031 33.797 C 365.097 33.863,364.147 33.894,362.920 33.866 L 360.689 33.816 360.636 35.495 C 360.568 37.659,360.428 37.500,362.411 37.500 C 364.501 37.500,364.284 36.922,364.322 42.606 C 364.339 45.149,364.420 47.152,364.509 47.242 C 364.709 47.442,364.718 48.718,364.519 48.595 C 364.437 48.545,364.338 48.728,364.298 49.002 C 364.257 49.276,364.286 49.500,364.362 49.500 C 364.592 49.500,364.518 49.762,364.176 50.156 C 363.997 50.362,363.779 50.486,363.691 50.432 C 363.603 50.377,363.566 50.467,363.609 50.632 C 363.683 50.912,363.483 50.930,360.385 50.915 C 355.432 50.890,355.167 50.874,355.167 50.583 C 355.167 50.381,354.904 50.334,353.792 50.336 C 352.331 50.339,351.707 50.529,352.167 50.831 C 352.334 50.941,352.348 50.996,352.208 50.997 C 352.059 50.999,352.000 51.377,352.000 52.323 L 352.000 53.646 352.748 53.758 C 353.160 53.820,353.458 53.933,353.410 54.010 C 353.363 54.087,354.451 54.172,355.829 54.200 C 357.419 54.232,358.336 54.189,358.339 54.083 C 358.341 53.992,358.420 54.048,358.513 54.208 C 358.699 54.527,363.833 54.668,363.833 54.355 C 363.833 54.275,364.141 54.160,364.516 54.100 C 365.017 54.020,365.174 53.927,365.107 53.751 C 365.056 53.619,365.098 53.459,365.200 53.396 C 365.312 53.327,365.338 53.358,365.266 53.474 C 365.201 53.580,365.226 53.667,365.323 53.667 C 365.421 53.667,365.500 53.594,365.500 53.505 C 365.500 53.416,365.626 53.392,365.779 53.451 C 365.990 53.532,366.032 53.490,365.952 53.281 C 365.893 53.129,365.899 53.012,365.964 53.022 C 366.305 53.073,366.500 52.974,366.500 52.750 C 366.500 52.612,366.575 52.500,366.667 52.500 C 366.758 52.500,366.833 52.313,366.833 52.083 C 366.833 51.811,366.926 51.667,367.103 51.667 C 367.304 51.667,367.351 51.555,367.289 51.229 C 367.225 50.894,367.281 50.772,367.532 50.707 C 368.078 50.564,368.108 50.147,368.058 43.500 C 368.005 36.416,367.969 35.947,367.444 35.579 C 367.245 35.440,367.083 35.272,367.083 35.205 C 367.083 35.138,366.990 35.094,366.877 35.106 C 366.763 35.119,366.719 35.050,366.779 34.953 C 366.849 34.840,366.773 34.817,366.569 34.889 C 366.260 34.997,366.260 34.993,366.574 34.750 C 366.833 34.549,366.846 34.500,366.636 34.500 C 366.492 34.500,366.271 34.369,366.145 34.208 C 365.934 33.939,365.942 33.935,366.250 34.157 C 366.526 34.356,366.519 34.328,366.211 33.997 C 365.843 33.603,365.834 33.602,365.585 33.923 C 365.424 34.132,365.365 34.155,365.422 33.989 C 365.473 33.843,365.353 33.588,365.148 33.406 C 364.888 33.175,364.764 33.142,364.712 33.292 C 364.659 33.442,364.106 33.500,362.726 33.500 C 361.674 33.500,360.852 33.438,360.899 33.361 C 360.947 33.285,360.874 33.222,360.738 33.222 C 360.602 33.222,360.518 33.303,360.551 33.403 M270.193 34.423 C 269.989 34.657,269.874 34.931,269.937 35.033 C 270.006 35.145,269.976 35.171,269.859 35.099 C 269.753 35.034,269.667 35.069,269.667 35.178 C 269.667 35.287,269.440 35.821,269.164 36.365 C 268.887 36.910,268.711 37.444,268.774 37.553 C 268.836 37.661,268.826 37.695,268.752 37.628 C 268.579 37.471,267.799 39.004,267.908 39.287 C 267.974 39.461,270.014 39.494,278.370 39.460 L 288.750 39.417 288.750 36.750 L 288.750 34.083 279.656 34.040 L 270.563 33.997 270.193 34.423 M295.548 34.208 C 295.213 34.647,294.694 35.805,294.789 35.900 C 294.844 35.955,294.801 36.000,294.694 36.000 C 294.587 36.000,294.500 36.102,294.500 36.228 C 294.500 36.353,294.364 36.634,294.197 36.853 C 294.030 37.071,293.790 37.512,293.662 37.833 C 293.535 38.154,293.330 38.520,293.207 38.645 C 292.576 39.290,292.968 39.417,295.586 39.417 L 298.083 39.417 298.129 36.708 L 298.175 34.000 296.941 34.000 C 296.150 34.000,295.650 34.075,295.548 34.208 M303.500 39.403 C 303.500 42.379,303.436 44.853,303.357 44.902 C 303.279 44.951,303.170 45.362,303.116 45.817 C 302.958 47.150,301.816 48.941,301.001 49.131 C 300.889 49.157,300.688 49.288,300.554 49.423 C 300.419 49.557,300.137 49.667,299.926 49.667 C 299.714 49.667,299.307 49.714,299.021 49.771 L 298.500 49.875 298.500 45.938 L 298.500 42.000 295.667 42.000 L 292.833 42.000 292.833 48.583 L 292.833 55.167 295.887 55.167 C 299.110 55.167,301.853 54.838,302.292 54.399 C 302.419 54.271,302.652 54.167,302.808 54.167 C 302.965 54.167,303.259 54.050,303.463 53.907 C 303.667 53.765,303.833 53.692,303.833 53.747 C 303.833 53.802,303.997 53.693,304.198 53.506 C 304.399 53.320,304.628 53.167,304.707 53.167 C 304.786 53.167,305.091 52.942,305.384 52.667 C 306.033 52.059,306.081 52.057,306.583 52.598 C 306.803 52.836,307.050 52.988,307.133 52.937 C 307.216 52.886,307.381 53.027,307.500 53.250 C 307.619 53.473,307.781 53.616,307.858 53.568 C 307.936 53.520,308.000 53.543,308.000 53.619 C 308.000 53.696,308.337 53.907,308.748 54.088 C 309.160 54.269,309.498 54.464,309.498 54.523 C 309.503 54.849,312.010 55.083,315.500 55.083 L 319.250 55.083 319.250 44.583 L 319.250 34.083 316.583 34.083 L 313.917 34.083 313.873 41.969 C 313.833 49.372,313.812 49.850,313.540 49.769 C 313.381 49.722,312.912 49.636,312.500 49.578 C 312.087 49.520,311.619 49.355,311.458 49.211 C 311.298 49.066,311.167 49.003,311.167 49.071 C 311.167 49.138,310.823 48.850,310.404 48.430 C 309.984 48.010,309.587 47.667,309.522 47.667 C 309.457 47.667,309.392 47.505,309.377 47.307 C 309.362 47.109,309.253 46.886,309.133 46.813 C 308.964 46.708,308.898 45.298,308.833 40.381 L 308.750 34.083 306.125 34.037 L 303.500 33.992 303.500 39.403 M325.548 34.208 C 325.213 34.647,324.694 35.805,324.789 35.900 C 324.844 35.955,324.801 36.000,324.694 36.000 C 324.587 36.000,324.500 36.102,324.500 36.228 C 324.500 36.353,324.364 36.634,324.197 36.853 C 324.030 37.071,323.790 37.512,323.662 37.833 C 323.535 38.154,323.330 38.520,323.207 38.645 C 322.492 39.376,322.733 39.411,329.085 39.505 C 336.402 39.613,337.075 39.810,337.920 42.095 C 338.087 42.547,338.305 43.022,338.404 43.150 C 338.522 43.304,338.601 45.399,338.636 49.275 L 338.690 55.167 341.345 55.167 L 344.000 55.167 344.001 49.208 C 344.002 43.520,343.817 40.554,343.474 40.766 C 343.399 40.813,343.382 40.734,343.436 40.592 C 343.491 40.450,343.459 40.333,343.364 40.333 C 343.270 40.333,343.144 40.108,343.083 39.833 C 343.023 39.558,342.892 39.333,342.792 39.333 C 342.693 39.333,342.655 39.290,342.708 39.236 C 342.858 39.086,342.036 37.964,341.533 37.632 C 341.286 37.469,341.142 37.335,341.214 37.334 C 341.286 37.334,341.082 37.071,340.761 36.750 C 340.440 36.429,340.108 36.167,340.023 36.167 C 339.938 36.167,339.833 36.072,339.789 35.957 C 339.744 35.842,339.305 35.606,338.812 35.432 C 338.320 35.259,337.815 35.038,337.692 34.941 C 337.568 34.844,337.249 34.782,336.983 34.802 C 336.718 34.822,336.500 34.766,336.500 34.678 C 336.500 34.589,336.048 34.465,335.496 34.403 C 334.944 34.341,334.452 34.224,334.403 34.145 C 334.253 33.901,325.736 33.962,325.548 34.208 M267.912 42.618 C 267.977 42.965,268.117 43.355,268.223 43.484 C 268.330 43.613,268.400 43.743,268.380 43.774 C 268.312 43.875,268.558 44.397,268.823 44.715 C 269.590 45.637,269.770 45.815,269.980 45.864 C 270.106 45.893,270.384 46.085,270.597 46.292 C 270.936 46.620,271.423 46.765,271.894 46.680 C 271.973 46.666,272.135 46.788,272.255 46.952 C 272.453 47.223,272.931 47.258,277.611 47.341 C 282.463 47.426,283.448 47.514,283.246 47.839 C 283.200 47.915,283.237 48.024,283.331 48.082 C 283.633 48.268,283.510 48.940,283.091 49.392 L 282.683 49.833 275.175 49.833 L 267.667 49.833 267.667 52.542 L 267.666 55.250 275.875 55.156 C 283.920 55.064,285.528 54.950,285.242 54.488 C 285.199 54.418,285.376 54.314,285.636 54.257 C 286.503 54.066,288.701 51.628,288.419 51.170 C 288.371 51.092,288.416 51.000,288.520 50.965 C 289.012 50.801,288.809 45.667,288.311 45.667 C 288.231 45.667,288.167 45.528,288.167 45.359 C 288.167 45.190,288.018 44.918,287.837 44.754 C 287.656 44.590,287.555 44.379,287.613 44.285 C 287.671 44.192,287.645 44.160,287.555 44.216 C 287.389 44.319,286.728 43.674,286.791 43.470 C 286.810 43.408,286.558 43.268,286.230 43.160 C 285.902 43.052,285.435 42.860,285.192 42.733 C 284.949 42.606,284.662 42.502,284.556 42.501 C 284.449 42.500,284.330 42.406,284.292 42.292 C 284.238 42.130,282.396 42.072,276.008 42.034 L 267.793 41.985 267.912 42.618 M322.833 48.577 L 322.833 55.167 325.500 55.167 L 328.167 55.167 328.167 51.253 L 328.167 47.339 332.125 47.295 L 336.083 47.250 336.131 45.651 C 336.157 44.756,336.099 43.875,335.999 43.651 C 335.659 42.892,335.387 42.502,335.275 42.614 C 335.214 42.675,335.058 42.581,334.929 42.404 C 334.706 42.099,334.397 42.081,328.764 42.036 L 322.833 41.988 322.833 48.577 M363.768 49.931 C 363.705 50.093,363.743 50.169,363.864 50.129 C 364.114 50.045,364.251 49.667,364.032 49.667 C 363.942 49.667,363.823 49.785,363.768 49.931 M356.875 50.624 C 357.585 50.655,358.748 50.655,359.458 50.624 C 360.169 50.593,359.587 50.567,358.167 50.567 C 356.746 50.567,356.165 50.593,356.875 50.624 M355.792 53.955 C 355.448 53.991,354.885 53.991,354.542 53.955 C 354.198 53.919,354.479 53.889,355.167 53.889 C 355.854 53.889,356.135 53.919,355.792 53.955 " stroke="none" fill="#e4e4ec" fill-rule="evenodd"></path><path id="path1" d="M13.583 16.833 C 13.525 17.017,13.422 17.167,13.355 17.167 C 13.288 17.167,13.098 17.542,12.933 18.000 C 12.768 18.458,12.582 18.833,12.520 18.833 C 12.458 18.833,12.261 19.208,12.083 19.667 C 11.905 20.125,11.709 20.500,11.647 20.500 C 11.584 20.500,11.399 20.875,11.234 21.333 C 11.069 21.792,10.890 22.167,10.837 22.167 C 10.784 22.167,10.595 22.542,10.417 23.000 C 10.239 23.458,10.045 23.833,9.986 23.833 C 9.927 23.833,9.743 24.190,9.576 24.625 C 9.410 25.060,9.175 25.516,9.054 25.637 C 8.390 26.300,8.612 26.333,13.750 26.333 L 18.667 26.333 18.667 21.417 L 18.667 16.500 16.178 16.500 C 13.836 16.500,13.683 16.520,13.583 16.833 M37.667 23.667 L 37.667 30.833 23.250 30.833 L 8.833 30.833 8.833 43.083 L 8.833 55.333 13.750 55.333 L 18.667 55.333 18.667 48.083 L 18.667 40.833 28.167 40.833 L 37.667 40.833 37.667 48.083 L 37.667 55.333 42.500 55.333 L 47.333 55.333 47.333 35.917 L 47.333 16.500 42.500 16.500 L 37.667 16.500 37.667 23.667 M56.917 16.833 C 56.858 17.017,56.756 17.167,56.688 17.167 C 56.621 17.167,56.431 17.542,56.266 18.000 C 56.101 18.458,55.916 18.833,55.853 18.833 C 55.791 18.833,55.595 19.208,55.417 19.667 C 55.239 20.125,55.042 20.500,54.980 20.500 C 54.918 20.500,54.732 20.875,54.567 21.333 C 54.402 21.792,54.224 22.167,54.170 22.167 C 54.117 22.167,53.928 22.542,53.750 23.000 C 53.572 23.458,53.378 23.833,53.319 23.833 C 53.260 23.833,53.076 24.190,52.910 24.625 C 52.743 25.060,52.508 25.516,52.387 25.637 C 51.688 26.335,51.658 26.333,61.875 26.335 C 70.848 26.336,74.421 26.467,74.660 26.804 C 74.710 26.874,75.079 27.037,75.480 27.166 C 75.882 27.295,76.298 27.480,76.404 27.576 C 76.627 27.776,77.154 28.123,77.461 28.270 C 77.816 28.440,78.667 29.290,78.667 29.474 C 78.667 29.570,78.803 29.746,78.969 29.866 C 79.135 29.985,79.404 30.421,79.567 30.833 C 79.730 31.245,79.930 31.623,80.010 31.673 C 80.174 31.774,80.667 33.966,80.667 34.594 C 80.667 34.817,80.742 35.000,80.833 35.000 C 80.925 35.000,81.000 35.375,81.000 35.833 C 81.000 36.292,80.925 36.667,80.833 36.667 C 80.742 36.667,80.667 36.970,80.667 37.341 C 80.667 38.202,80.173 40.183,79.886 40.470 C 79.765 40.591,79.667 40.779,79.666 40.887 C 79.666 40.995,79.479 41.301,79.250 41.568 C 79.021 41.834,78.833 42.100,78.833 42.159 C 78.833 42.373,77.550 43.589,77.073 43.828 C 76.804 43.963,76.460 44.195,76.310 44.343 C 76.160 44.492,75.560 44.713,74.977 44.835 C 74.394 44.957,73.863 45.137,73.798 45.236 C 73.620 45.505,68.964 45.476,68.874 45.205 C 68.836 45.092,68.664 45.000,68.492 45.000 C 67.970 45.000,66.644 44.492,66.280 44.153 C 66.091 43.977,65.869 43.833,65.785 43.833 C 65.547 43.833,64.045 42.237,63.754 41.674 C 63.610 41.395,63.430 41.167,63.354 41.167 C 63.211 41.167,62.667 39.633,62.667 39.231 C 62.667 39.104,62.601 39.000,62.520 39.000 C 62.250 39.000,62.000 36.511,62.000 33.827 L 62.000 31.167 57.068 31.167 L 52.136 31.167 52.193 35.840 C 52.230 38.846,52.312 40.555,52.425 40.631 C 52.521 40.697,52.698 41.275,52.818 41.917 C 52.939 42.558,53.136 43.242,53.257 43.435 C 53.378 43.628,53.600 44.210,53.750 44.727 C 53.901 45.244,54.092 45.667,54.176 45.667 C 54.260 45.667,54.438 45.927,54.571 46.246 C 54.704 46.565,54.968 46.991,55.157 47.194 C 55.345 47.397,55.500 47.635,55.500 47.722 C 55.500 47.894,55.674 48.092,57.057 49.500 C 57.956 50.416,58.801 51.167,58.930 51.167 C 58.968 51.167,59.356 51.420,59.791 51.730 C 60.227 52.040,60.752 52.345,60.958 52.408 C 61.165 52.471,61.333 52.578,61.333 52.645 C 61.333 52.712,61.708 52.902,62.167 53.067 C 62.625 53.232,63.000 53.419,63.000 53.483 C 63.000 53.547,63.563 53.740,64.250 53.911 C 64.938 54.082,65.500 54.273,65.500 54.334 C 65.500 54.470,68.393 55.000,69.135 55.000 C 69.427 55.000,69.667 55.075,69.667 55.167 C 69.667 55.268,70.417 55.333,71.583 55.333 C 72.750 55.333,73.500 55.268,73.500 55.167 C 73.500 55.075,73.744 54.997,74.042 54.994 C 74.822 54.986,77.201 54.543,77.318 54.384 C 77.372 54.310,77.938 54.117,78.576 53.954 C 79.214 53.791,79.777 53.598,79.826 53.526 C 79.876 53.453,80.254 53.261,80.666 53.098 C 81.078 52.936,81.453 52.752,81.500 52.689 C 81.546 52.626,81.902 52.434,82.292 52.262 C 82.681 52.090,83.000 51.889,83.000 51.816 C 83.000 51.742,83.276 51.551,83.613 51.392 C 83.950 51.232,84.529 50.778,84.900 50.384 C 85.271 49.989,85.673 49.667,85.792 49.667 C 85.911 49.667,86.080 49.477,86.168 49.246 C 86.256 49.014,86.433 48.785,86.560 48.736 C 86.687 48.687,86.930 48.389,87.100 48.074 C 87.270 47.758,87.465 47.500,87.534 47.500 C 87.602 47.500,87.783 47.256,87.936 46.958 C 88.088 46.660,88.266 46.379,88.330 46.333 C 88.395 46.288,88.582 45.894,88.746 45.458 C 88.911 45.023,89.102 44.667,89.171 44.667 C 89.240 44.667,89.431 44.160,89.596 43.542 C 89.761 42.923,89.948 42.379,90.011 42.333 C 90.771 41.780,90.763 29.500,90.002 29.500 C 89.934 29.500,89.782 29.044,89.664 28.486 C 89.545 27.929,89.361 27.385,89.254 27.278 C 89.147 27.171,88.923 26.727,88.757 26.292 C 88.591 25.856,88.391 25.500,88.313 25.500 C 88.235 25.500,88.064 25.244,87.934 24.931 C 87.659 24.274,87.612 24.218,85.764 22.333 C 84.333 20.874,83.960 20.561,83.458 20.392 C 83.298 20.339,83.167 20.227,83.167 20.144 C 83.167 20.061,82.960 19.904,82.708 19.795 C 82.456 19.686,82.077 19.467,81.866 19.309 C 81.654 19.150,81.092 18.892,80.616 18.736 C 80.140 18.579,79.712 18.405,79.667 18.350 C 79.547 18.205,78.524 17.873,77.792 17.742 C 77.448 17.680,77.167 17.575,77.167 17.509 C 77.167 17.357,74.281 16.833,73.449 16.833 C 73.110 16.833,72.833 16.758,72.833 16.667 C 72.833 16.290,57.037 16.456,56.917 16.833 M100.250 16.833 C 100.192 17.017,100.089 17.167,100.022 17.167 C 99.954 17.167,99.764 17.542,99.600 18.000 C 99.435 18.458,99.249 18.833,99.187 18.833 C 99.124 18.833,98.928 19.208,98.750 19.667 C 98.572 20.125,98.376 20.500,98.313 20.500 C 98.251 20.500,98.065 20.875,97.900 21.333 C 97.736 21.792,97.557 22.167,97.504 22.167 C 97.450 22.167,97.261 22.542,97.083 23.000 C 96.905 23.458,96.712 23.833,96.653 23.833 C 96.594 23.833,96.409 24.190,96.243 24.625 C 96.077 25.060,95.842 25.516,95.720 25.637 C 95.057 26.300,95.278 26.333,100.417 26.333 L 105.333 26.333 105.333 21.417 L 105.333 16.500 102.845 16.500 C 100.502 16.500,100.350 16.520,100.250 16.833 M143.583 16.833 C 143.525 17.017,143.422 17.167,143.355 17.167 C 143.288 17.167,143.098 17.542,142.933 18.000 C 142.768 18.458,142.582 18.833,142.520 18.833 C 142.458 18.833,142.261 19.208,142.083 19.667 C 141.905 20.125,141.709 20.500,141.647 20.500 C 141.584 20.500,141.399 20.875,141.234 21.333 C 141.069 21.792,140.890 22.167,140.837 22.167 C 140.784 22.167,140.595 22.542,140.417 23.000 C 140.239 23.458,140.045 23.833,139.986 23.833 C 139.927 23.833,139.743 24.190,139.576 24.625 C 139.410 25.060,139.175 25.516,139.054 25.637 C 138.355 26.335,138.330 26.333,148.463 26.333 C 157.500 26.333,160.763 26.460,160.996 26.821 C 161.044 26.895,161.515 27.080,162.042 27.233 C 162.569 27.385,163.000 27.574,163.000 27.653 C 163.000 27.732,163.169 27.841,163.375 27.894 C 163.581 27.948,163.975 28.181,164.250 28.413 C 165.459 29.432,165.751 29.759,166.265 30.676 C 166.440 30.988,166.672 31.340,166.781 31.457 C 166.890 31.573,167.073 32.231,167.189 32.918 C 167.304 33.605,167.459 34.167,167.533 34.167 C 167.606 34.167,167.667 34.992,167.667 36.000 C 167.667 37.111,167.601 37.833,167.500 37.833 C 167.408 37.833,167.333 38.007,167.333 38.220 C 167.333 38.694,166.844 40.385,166.673 40.500 C 166.605 40.546,166.412 40.875,166.245 41.231 C 165.967 41.822,164.749 43.167,164.491 43.167 C 164.431 43.167,164.180 43.354,163.932 43.583 C 163.685 43.813,163.380 44.000,163.253 44.000 C 163.127 44.000,162.908 44.116,162.767 44.257 C 162.625 44.398,161.926 44.638,161.213 44.790 C 160.500 44.942,159.866 45.140,159.805 45.230 C 159.741 45.323,158.285 45.426,156.427 45.468 L 153.162 45.543 153.206 50.397 L 153.250 55.250 156.708 55.295 C 158.978 55.325,160.167 55.282,160.167 55.170 C 160.167 55.077,160.410 54.997,160.708 54.994 C 161.489 54.986,163.868 54.543,163.984 54.384 C 164.039 54.310,164.605 54.117,165.243 53.954 C 165.881 53.791,166.443 53.598,166.493 53.526 C 166.543 53.453,166.921 53.261,167.333 53.098 C 167.745 52.936,168.120 52.752,168.166 52.689 C 168.212 52.626,168.569 52.434,168.958 52.262 C 169.348 52.090,169.667 51.889,169.667 51.816 C 169.667 51.742,169.942 51.551,170.279 51.392 C 170.616 51.232,171.196 50.778,171.567 50.384 C 171.938 49.989,172.339 49.667,172.458 49.667 C 172.577 49.667,172.747 49.477,172.835 49.246 C 172.923 49.014,173.099 48.785,173.227 48.736 C 173.354 48.687,173.597 48.389,173.767 48.074 C 173.937 47.758,174.132 47.500,174.200 47.500 C 174.269 47.500,174.450 47.256,174.602 46.958 C 174.755 46.660,174.933 46.379,174.997 46.333 C 175.061 46.288,175.248 45.894,175.413 45.458 C 175.577 45.023,175.768 44.667,175.837 44.667 C 175.907 44.667,176.098 44.160,176.263 43.542 C 176.428 42.923,176.614 42.379,176.677 42.333 C 177.438 41.780,177.430 29.500,176.669 29.500 C 176.601 29.500,176.449 29.044,176.330 28.486 C 176.212 27.929,176.028 27.385,175.921 27.278 C 175.814 27.171,175.590 26.727,175.424 26.292 C 175.257 25.856,175.058 25.500,174.980 25.500 C 174.902 25.500,174.731 25.244,174.600 24.931 C 174.326 24.274,174.278 24.218,172.430 22.333 C 171.000 20.874,170.627 20.561,170.125 20.392 C 169.965 20.339,169.833 20.227,169.833 20.144 C 169.833 20.061,169.627 19.904,169.375 19.795 C 169.123 19.686,168.744 19.467,168.532 19.309 C 168.321 19.150,167.758 18.892,167.282 18.736 C 166.806 18.579,166.379 18.405,166.333 18.350 C 166.214 18.205,165.191 17.873,164.458 17.742 C 164.115 17.680,163.833 17.575,163.833 17.509 C 163.833 17.357,160.948 16.833,160.115 16.833 C 159.777 16.833,159.500 16.758,159.500 16.667 C 159.500 16.290,143.703 16.456,143.583 16.833 M186.917 16.833 C 186.858 17.017,186.756 17.167,186.688 17.167 C 186.621 17.167,186.431 17.542,186.266 18.000 C 186.101 18.458,185.916 18.833,185.853 18.833 C 185.791 18.833,185.595 19.208,185.417 19.667 C 185.239 20.125,185.042 20.500,184.980 20.500 C 184.918 20.500,184.732 20.875,184.567 21.333 C 184.402 21.792,184.224 22.167,184.170 22.167 C 184.117 22.167,183.928 22.542,183.750 23.000 C 183.572 23.458,183.378 23.833,183.319 23.833 C 183.260 23.833,183.076 24.190,182.910 24.625 C 182.743 25.060,182.508 25.516,182.387 25.637 C 181.668 26.355,181.065 26.333,201.417 26.333 L 220.667 26.333 220.667 21.417 L 220.667 16.500 203.845 16.500 C 187.169 16.500,187.022 16.503,186.917 16.833 M230.250 16.833 C 230.192 17.017,230.089 17.167,230.022 17.167 C 229.954 17.167,229.764 17.542,229.600 18.000 C 229.435 18.458,229.249 18.833,229.187 18.833 C 229.124 18.833,228.928 19.208,228.750 19.667 C 228.572 20.125,228.376 20.500,228.313 20.500 C 228.251 20.500,228.065 20.875,227.900 21.333 C 227.736 21.792,227.557 22.167,227.504 22.167 C 227.450 22.167,227.261 22.542,227.083 23.000 C 226.905 23.458,226.712 23.833,226.653 23.833 C 226.594 23.833,226.409 24.190,226.243 24.625 C 226.077 25.060,225.842 25.516,225.720 25.637 C 225.057 26.300,225.278 26.333,230.417 26.333 L 235.333 26.333 235.333 21.417 L 235.333 16.500 232.845 16.500 C 230.502 16.500,230.350 16.520,230.250 16.833 M254.333 19.417 C 254.333 21.250,254.271 22.333,254.167 22.333 C 254.075 22.333,253.997 22.577,253.994 22.875 C 253.986 23.619,253.566 25.521,253.382 25.647 C 253.299 25.704,253.130 26.012,253.006 26.333 C 252.883 26.654,252.699 26.992,252.597 27.083 C 252.495 27.175,252.276 27.462,252.110 27.721 C 251.635 28.464,251.125 29.000,250.895 29.000 C 250.778 29.000,250.623 29.107,250.550 29.237 C 250.122 29.999,247.552 30.833,245.636 30.833 C 245.101 30.833,244.667 30.908,244.667 31.000 C 244.667 31.098,244.083 31.167,243.249 31.167 C 241.730 31.167,238.555 31.583,238.261 31.820 C 238.163 31.899,237.615 32.095,237.042 32.254 C 236.469 32.413,236.000 32.594,236.000 32.656 C 236.000 32.717,235.625 32.902,235.167 33.067 C 234.708 33.232,234.333 33.417,234.333 33.479 C 234.333 33.540,234.052 33.739,233.708 33.920 C 233.365 34.100,232.985 34.380,232.866 34.541 C 232.746 34.702,232.571 34.833,232.476 34.833 C 232.233 34.833,229.947 37.173,229.574 37.805 C 229.402 38.096,229.215 38.333,229.158 38.333 C 229.100 38.333,228.910 38.632,228.735 38.998 C 228.560 39.364,228.368 39.664,228.308 39.665 C 228.249 39.666,228.065 40.042,227.900 40.500 C 227.736 40.958,227.543 41.333,227.472 41.333 C 227.401 41.333,227.218 41.765,227.066 42.292 C 226.914 42.819,226.731 43.288,226.660 43.334 C 226.488 43.445,226.000 45.833,226.000 46.562 C 226.000 46.879,225.912 47.168,225.805 47.204 C 225.667 47.250,225.588 48.432,225.533 51.301 L 225.456 55.333 230.395 55.333 L 235.333 55.333 235.333 52.490 C 235.333 49.707,235.575 47.333,235.858 47.333 C 235.936 47.333,236.000 47.192,236.000 47.020 C 236.000 46.678,236.468 45.467,236.652 45.333 C 236.716 45.288,236.898 44.969,237.058 44.625 C 237.218 44.281,237.422 44.000,237.512 44.000 C 237.602 44.000,237.747 43.811,237.834 43.580 C 237.922 43.350,238.173 43.093,238.391 43.010 C 238.609 42.927,238.833 42.741,238.889 42.596 C 238.944 42.452,239.069 42.333,239.165 42.333 C 239.262 42.333,239.620 42.149,239.962 41.924 C 240.304 41.699,241.090 41.419,241.708 41.303 C 242.327 41.186,242.833 41.033,242.833 40.962 C 242.833 40.891,243.733 40.833,244.833 40.833 C 246.056 40.833,246.833 40.898,246.833 41.000 C 246.833 41.092,247.012 41.167,247.231 41.167 C 247.675 41.167,249.370 41.672,249.500 41.844 C 249.546 41.904,249.808 42.069,250.083 42.211 C 250.358 42.352,250.765 42.663,250.987 42.901 C 251.210 43.139,251.482 43.333,251.593 43.333 C 251.704 43.333,251.839 43.465,251.892 43.625 C 252.010 43.976,252.348 44.512,252.599 44.746 C 252.700 44.840,252.883 45.179,253.006 45.500 C 253.130 45.821,253.299 46.130,253.382 46.187 C 253.588 46.328,253.994 48.103,253.997 48.875 C 253.999 49.219,254.075 49.500,254.167 49.500 C 254.271 49.500,254.333 50.583,254.333 52.417 L 254.333 55.333 259.186 55.333 L 264.039 55.333 263.956 51.458 C 263.880 47.880,263.590 45.000,263.307 45.000 C 263.242 45.000,263.064 44.438,262.911 43.750 C 262.758 43.063,262.581 42.500,262.518 42.500 C 262.454 42.500,262.258 42.069,262.081 41.542 C 261.904 41.015,261.675 40.508,261.572 40.417 C 261.469 40.325,261.284 39.987,261.161 39.667 C 261.037 39.346,260.838 39.023,260.718 38.950 C 260.598 38.877,260.500 38.722,260.500 38.606 C 260.500 38.491,260.363 38.249,260.195 38.069 C 260.027 37.889,259.746 37.518,259.571 37.246 C 259.395 36.973,259.083 36.613,258.876 36.446 C 258.339 36.012,258.388 35.871,259.493 34.699 C 260.038 34.121,260.530 33.502,260.586 33.324 C 260.643 33.146,260.760 33.000,260.847 33.000 C 260.934 33.000,261.135 32.721,261.294 32.380 C 261.453 32.039,261.715 31.627,261.875 31.463 C 262.035 31.300,262.167 31.060,262.167 30.929 C 262.167 30.798,262.262 30.591,262.378 30.470 C 262.608 30.231,263.167 28.558,263.167 28.110 C 263.167 27.958,263.234 27.833,263.316 27.833 C 263.660 27.833,263.881 25.520,263.956 21.125 L 264.035 16.500 259.184 16.500 L 254.333 16.500 254.333 19.417 M361.500 17.708 C 361.500 17.878,361.864 17.862,362.151 17.680 C 362.318 17.574,362.259 17.539,361.942 17.558 C 361.699 17.572,361.500 17.640,361.500 17.708 M371.544 28.453 C 371.797 28.491,372.172 28.490,372.377 28.451 C 372.582 28.411,372.375 28.380,371.917 28.381 C 371.458 28.382,371.291 28.415,371.544 28.453 M95.500 43.083 L 95.500 55.333 114.750 55.333 L 134.000 55.333 134.000 50.417 L 134.000 45.500 119.667 45.500 L 105.333 45.500 105.333 38.167 L 105.333 30.833 100.417 30.833 L 95.500 30.833 95.500 43.083 M182.167 43.083 L 182.167 55.333 201.417 55.333 L 220.667 55.333 220.667 50.417 L 220.667 45.500 206.333 45.500 L 192.000 45.500 192.000 43.167 L 192.000 40.833 206.333 40.833 L 220.667 40.833 220.667 35.833 L 220.667 30.833 201.417 30.833 L 182.167 30.833 182.167 43.083 M138.833 43.250 L 138.833 55.333 143.750 55.333 L 148.667 55.333 148.667 43.250 L 148.667 31.167 143.750 31.167 L 138.833 31.167 138.833 43.250 M373.138 32.219 C 373.489 32.593,373.500 32.729,373.500 36.552 C 373.500 39.073,373.560 40.500,373.667 40.500 C 374.058 40.500,373.872 32.714,373.470 32.251 C 373.270 32.021,373.032 31.833,372.941 31.833 C 372.850 31.833,372.938 32.007,373.138 32.219 M376.938 39.458 C 376.801 40.160,376.888 45.167,377.036 45.167 C 377.108 45.167,377.167 43.779,377.167 42.083 C 377.167 39.074,377.119 38.525,376.938 39.458 M369.333 45.500 C 369.333 45.683,369.408 45.833,369.500 45.833 C 369.592 45.833,369.648 45.740,369.625 45.625 C 369.595 45.476,370.011 45.390,371.083 45.323 L 372.583 45.230 370.958 45.198 C 369.434 45.169,369.333 45.187,369.333 45.500 M374.167 48.000 C 374.167 48.092,374.321 48.167,374.510 48.167 C 374.699 48.167,374.807 48.092,374.750 48.000 C 374.693 47.908,374.539 47.833,374.407 47.833 C 374.275 47.833,374.167 47.908,374.167 48.000 " stroke="none" fill="#0cbcfc" fill-rule="evenodd"></path><path id="path2" d="M357.590 10.541 C 357.411 10.839,357.103 11.383,356.906 11.750 C 356.710 12.117,356.369 12.740,356.149 13.136 C 355.930 13.531,355.584 14.169,355.382 14.553 C 355.179 14.936,355.010 15.175,355.006 15.083 C 355.002 14.992,354.809 15.290,354.578 15.746 C 354.346 16.202,354.028 16.648,353.870 16.737 C 353.617 16.881,353.632 16.913,354.000 17.016 L 354.417 17.133 353.958 17.150 C 353.297 17.174,353.392 17.500,354.060 17.500 C 355.265 17.500,356.166 17.705,356.178 17.981 C 356.187 18.185,356.225 18.170,356.333 17.917 C 356.473 17.592,356.477 17.593,356.488 17.941 C 356.495 18.137,356.378 18.344,356.230 18.401 C 355.917 18.522,356.027 43.049,356.347 44.477 C 356.519 45.245,357.371 46.627,357.765 46.779 C 357.893 46.828,357.959 46.932,357.911 47.009 C 357.863 47.087,357.995 47.241,358.204 47.352 C 358.412 47.463,358.683 47.673,358.804 47.819 C 358.981 48.031,359.003 48.034,358.917 47.833 C 358.854 47.688,358.913 47.711,359.058 47.890 C 359.367 48.268,360.072 48.434,361.568 48.482 C 363.002 48.528,362.994 48.540,362.997 46.298 C 363.000 44.221,362.891 44.071,361.473 44.207 C 360.813 44.270,360.590 44.219,360.273 43.934 L 359.884 43.583 359.846 37.530 L 359.808 31.477 360.863 31.472 C 361.442 31.470,364.155 31.434,366.891 31.393 L 371.865 31.319 372.641 31.943 C 373.067 32.286,373.274 32.402,373.099 32.200 C 372.925 31.998,372.855 31.833,372.944 31.833 C 373.900 31.833,374.397 40.068,373.476 40.643 C 373.187 40.823,373.163 40.895,373.351 41.012 C 373.533 41.125,373.542 41.224,373.390 41.468 C 373.271 41.661,373.254 41.870,373.346 42.015 C 373.554 42.344,373.536 42.542,373.310 42.402 C 373.175 42.319,373.153 42.456,373.233 42.887 C 373.518 44.402,372.659 45.078,370.583 44.973 C 369.896 44.939,369.333 44.968,369.333 45.038 C 369.333 45.109,370.065 45.181,370.958 45.198 L 372.583 45.230 371.083 45.323 C 370.011 45.390,369.595 45.476,369.625 45.625 C 369.648 45.740,369.583 45.833,369.481 45.833 C 369.361 45.833,369.333 46.032,369.403 46.400 C 369.477 46.799,369.434 47.042,369.256 47.220 C 369.065 47.411,369.054 47.494,369.210 47.557 C 369.373 47.623,369.373 47.643,369.208 47.654 C 369.094 47.661,369.001 47.798,369.003 47.958 C 369.005 48.208,369.029 48.214,369.167 48.000 C 369.274 47.833,369.329 47.819,369.331 47.958 C 369.333 48.115,369.929 48.167,371.750 48.167 C 373.408 48.167,374.167 48.109,374.167 47.982 C 374.167 47.869,374.325 47.837,374.573 47.899 C 374.797 47.955,375.027 47.925,375.085 47.831 C 375.142 47.738,375.249 47.698,375.322 47.743 C 375.454 47.825,375.912 47.402,376.834 46.345 C 377.385 45.714,377.402 45.499,377.334 40.024 C 377.314 38.356,377.351 37.990,377.529 38.098 C 377.680 38.189,377.671 38.132,377.500 37.917 C 377.363 37.744,377.330 37.651,377.429 37.710 C 377.553 37.784,377.604 36.985,377.596 35.075 C 377.589 33.567,377.528 32.333,377.459 32.333 C 377.390 32.333,377.333 32.157,377.333 31.942 C 377.333 31.359,377.010 30.539,376.738 30.435 C 376.607 30.385,376.500 30.246,376.500 30.126 C 376.500 29.925,375.938 29.333,375.747 29.333 C 375.701 29.333,375.425 29.106,375.134 28.827 C 374.843 28.549,374.511 28.357,374.396 28.401 C 374.282 28.445,374.162 28.401,374.129 28.303 C 374.089 28.183,372.141 28.113,368.076 28.085 C 360.057 28.031,359.709 28.021,359.976 27.852 C 360.134 27.752,360.146 27.674,360.018 27.594 C 359.890 27.515,359.833 26.003,359.833 22.657 C 359.833 17.300,359.732 17.738,360.958 17.822 C 361.267 17.843,361.500 17.780,361.500 17.674 C 361.500 17.538,361.593 17.538,361.848 17.674 C 362.039 17.777,362.239 17.817,362.292 17.764 C 362.345 17.710,362.283 17.666,362.153 17.664 C 361.959 17.662,361.961 17.633,362.167 17.503 C 362.385 17.364,362.386 17.295,362.178 16.963 C 361.824 16.399,360.875 14.730,360.208 13.500 C 358.869 11.030,358.667 10.622,358.667 10.400 C 358.667 10.272,358.598 10.167,358.514 10.167 C 358.429 10.167,358.261 10.129,358.139 10.083 C 358.011 10.035,357.778 10.230,357.590 10.541 M372.377 28.451 C 372.172 28.490,371.797 28.491,371.544 28.453 C 371.291 28.415,371.458 28.382,371.917 28.381 C 372.375 28.380,372.582 28.411,372.377 28.451 M377.167 42.083 C 377.167 43.779,377.108 45.167,377.036 45.167 C 376.888 45.167,376.801 40.160,376.938 39.458 C 377.119 38.525,377.167 39.074,377.167 42.083 " stroke="none" fill="#04acec" fill-rule="evenodd"></path><path id="path3" d="M360.761 33.352 C 360.895 33.567,364.667 33.542,364.667 33.326 C 364.667 33.213,363.964 33.161,362.668 33.177 C 361.549 33.192,360.710 33.268,360.761 33.352 M365.234 33.482 C 365.406 33.673,365.480 33.905,365.409 34.031 C 365.317 34.192,365.336 34.202,365.481 34.070 C 365.723 33.848,365.569 33.395,365.205 33.256 C 364.978 33.168,364.982 33.204,365.234 33.482 M351.455 33.454 C 351.750 33.490,352.275 33.491,352.621 33.455 C 352.967 33.419,352.725 33.389,352.083 33.388 C 351.442 33.387,351.159 33.417,351.455 33.454 M360.468 35.388 C 360.401 37.752,360.331 37.667,362.342 37.667 C 363.254 37.667,364.010 37.685,364.022 37.708 C 364.034 37.731,364.090 40.128,364.147 43.033 C 364.223 46.921,364.305 48.372,364.458 48.525 C 364.625 48.692,364.667 48.600,364.667 48.067 C 364.667 47.700,364.596 47.329,364.509 47.242 C 364.420 47.152,364.339 45.149,364.322 42.606 C 364.284 36.922,364.501 37.500,362.411 37.500 C 360.428 37.500,360.568 37.659,360.636 35.495 L 360.689 33.816 362.920 33.866 C 364.147 33.894,365.098 33.865,365.034 33.801 C 364.969 33.737,363.927 33.662,362.718 33.634 L 360.519 33.583 360.468 35.388 M334.483 34.216 C 334.561 34.294,334.878 34.332,335.187 34.300 C 335.736 34.243,335.733 34.240,335.046 34.159 C 334.659 34.113,334.406 34.139,334.483 34.216 M366.418 34.831 C 366.357 34.929,366.432 34.952,366.602 34.886 C 366.795 34.812,366.849 34.840,366.769 34.970 C 366.691 35.096,366.739 35.128,366.907 35.064 C 367.049 35.010,367.123 34.898,367.073 34.816 C 366.949 34.616,366.545 34.626,366.418 34.831 M337.752 35.004 C 337.863 35.183,338.500 35.325,338.500 35.170 C 338.500 35.098,338.315 35.003,338.088 34.960 C 337.862 34.917,337.711 34.937,337.752 35.004 M353.833 37.564 C 353.833 37.600,354.054 37.661,354.325 37.701 C 354.595 37.741,354.778 37.712,354.731 37.637 C 354.649 37.503,353.833 37.437,353.833 37.564 M368.072 42.167 C 368.072 44.504,368.096 45.460,368.125 44.292 C 368.153 43.123,368.153 41.210,368.125 40.042 C 368.096 38.873,368.072 39.829,368.072 42.167 M284.583 42.500 C 284.767 42.579,285.029 42.643,285.167 42.643 C 285.324 42.643,285.293 42.590,285.083 42.500 C 284.900 42.421,284.637 42.357,284.500 42.357 C 284.342 42.357,284.373 42.410,284.583 42.500 M269.835 45.986 C 269.835 46.040,270.018 46.168,270.239 46.270 C 270.600 46.437,270.624 46.427,270.465 46.173 C 270.300 45.908,269.832 45.769,269.835 45.986 M271.500 46.849 C 271.500 46.911,271.681 46.996,271.901 47.038 C 272.180 47.091,272.278 47.049,272.221 46.902 C 272.139 46.688,271.500 46.641,271.500 46.849 M368.039 47.500 C 368.039 47.821,368.073 47.952,368.115 47.792 C 368.157 47.631,368.157 47.369,368.115 47.208 C 368.073 47.048,368.039 47.179,368.039 47.500 M364.167 49.713 C 364.167 50.496,356.764 51.176,355.515 50.508 C 355.232 50.357,355.167 50.370,355.167 50.577 C 355.167 50.874,355.409 50.890,360.375 50.915 C 362.185 50.924,363.667 50.868,363.667 50.791 C 363.667 50.714,363.854 50.464,364.083 50.235 C 364.517 49.801,364.619 49.500,364.333 49.500 C 364.242 49.500,364.167 49.596,364.167 49.713 M367.296 50.760 C 367.245 50.811,367.240 50.996,367.286 51.170 C 367.375 51.511,367.833 51.239,367.833 50.845 C 367.833 50.659,367.457 50.599,367.296 50.760 M366.833 52.093 C 366.833 52.574,367.080 52.515,367.214 52.003 C 367.272 51.783,367.221 51.667,367.068 51.667 C 366.927 51.667,366.833 51.838,366.833 52.093 M286.667 53.613 C 286.297 54.004,286.290 54.033,286.605 53.865 C 286.801 53.761,287.005 53.561,287.058 53.421 C 287.189 53.081,287.153 53.098,286.667 53.613 M352.250 53.875 C 352.433 54.011,352.751 54.108,352.955 54.092 C 353.384 54.058,353.683 53.833,353.299 53.833 C 353.157 53.833,352.789 53.788,352.479 53.732 C 351.953 53.636,351.938 53.645,352.250 53.875 M354.542 53.955 C 354.885 53.991,355.448 53.991,355.792 53.955 C 356.135 53.919,355.854 53.889,355.167 53.889 C 354.479 53.889,354.198 53.919,354.542 53.955 M275.583 55.167 L 267.750 55.255 275.625 55.294 C 280.790 55.320,283.500 55.276,283.500 55.167 C 283.500 55.075,283.481 55.018,283.458 55.039 C 283.435 55.061,279.892 55.118,275.583 55.167 M296.083 55.167 L 292.750 55.261 296.125 55.297 C 298.288 55.320,299.500 55.273,299.500 55.167 C 299.500 55.075,299.481 55.016,299.458 55.036 C 299.435 55.056,297.917 55.115,296.083 55.167 M312.167 55.208 C 312.167 55.277,313.779 55.333,315.750 55.333 C 317.721 55.333,319.333 55.277,319.333 55.208 C 319.333 55.140,317.721 55.083,315.750 55.083 C 313.779 55.083,312.167 55.140,312.167 55.208 M324.125 55.291 C 324.881 55.322,326.119 55.322,326.875 55.291 C 327.631 55.260,327.012 55.235,325.500 55.235 C 323.987 55.235,323.369 55.260,324.125 55.291 M339.958 55.291 C 340.715 55.322,341.952 55.322,342.708 55.291 C 343.465 55.260,342.846 55.235,341.333 55.235 C 339.821 55.235,339.202 55.260,339.958 55.291 M350.180 68.042 C 350.173 68.202,350.094 68.333,350.005 68.333 C 349.916 68.333,349.892 68.458,349.950 68.610 C 350.039 68.842,350.079 68.824,350.200 68.499 C 350.278 68.286,350.309 68.030,350.268 67.931 C 350.227 67.831,350.187 67.881,350.180 68.042 " stroke="none" fill="#e6ecec" fill-rule="evenodd"></path><path id="path4" d="M353.546 17.833 C 353.531 18.024,353.623 18.167,353.760 18.167 C 353.892 18.167,354.001 18.073,354.003 17.958 C 354.004 17.813,354.051 17.823,354.156 17.989 C 354.251 18.139,354.605 18.232,355.112 18.239 C 355.555 18.245,355.972 18.325,356.039 18.417 C 356.106 18.508,356.163 18.379,356.164 18.129 C 356.166 17.713,356.125 17.683,355.667 17.775 C 355.348 17.839,355.167 17.807,355.167 17.688 C 355.167 17.313,353.574 17.456,353.546 17.833 M361.917 27.492 C 361.623 27.611,361.642 27.636,362.083 27.705 C 362.358 27.748,361.952 27.795,361.181 27.808 C 360.409 27.822,359.825 27.880,359.883 27.938 C 359.940 27.996,363.064 28.064,366.825 28.091 C 372.565 28.131,373.626 28.103,373.438 27.914 C 373.274 27.751,372.852 27.707,371.898 27.755 C 371.081 27.796,370.773 27.772,371.083 27.692 L 371.583 27.563 371.083 27.468 C 369.873 27.238,367.954 27.307,368.057 27.576 C 368.143 27.799,367.893 27.833,366.161 27.833 C 364.770 27.833,364.179 27.777,364.208 27.646 C 364.231 27.543,364.144 27.420,364.015 27.373 C 363.852 27.314,363.812 27.372,363.885 27.561 C 363.963 27.764,363.896 27.830,363.620 27.820 C 363.416 27.813,363.344 27.769,363.459 27.723 C 363.575 27.676,363.626 27.570,363.575 27.486 C 363.460 27.301,362.378 27.305,361.917 27.492 M354.500 27.793 C 354.500 27.862,354.259 28.025,353.964 28.156 L 353.429 28.393 353.908 28.553 C 354.292 28.681,354.429 28.656,354.594 28.430 C 354.726 28.249,354.841 28.211,354.911 28.323 C 355.070 28.581,355.333 28.539,355.333 28.256 C 355.333 28.122,355.188 27.934,355.011 27.839 C 354.628 27.634,354.500 27.622,354.500 27.793 M347.610 28.093 C 347.665 28.236,347.819 28.311,347.952 28.260 C 348.085 28.208,348.413 28.167,348.680 28.167 C 348.948 28.167,349.167 28.092,349.167 28.000 C 349.167 27.908,348.794 27.833,348.339 27.833 C 347.657 27.833,347.528 27.879,347.610 28.093 M349.333 28.000 C 349.333 28.092,349.558 28.167,349.833 28.167 C 350.108 28.167,350.333 28.092,350.333 28.000 C 350.333 27.908,350.108 27.833,349.833 27.833 C 349.558 27.833,349.333 27.908,349.333 28.000 M351.773 28.083 C 351.836 28.246,352.095 28.333,352.518 28.333 C 353.295 28.333,353.376 28.084,352.646 27.938 C 351.846 27.778,351.667 27.808,351.773 28.083 M343.417 28.167 C 343.352 28.272,343.748 28.333,344.490 28.333 C 345.163 28.333,345.667 28.262,345.667 28.167 C 345.667 28.073,345.198 28.000,344.593 28.000 C 344.003 28.000,343.473 28.075,343.417 28.167 M355.010 29.167 C 355.010 29.643,355.041 29.696,355.180 29.458 C 355.295 29.260,355.295 29.073,355.180 28.875 C 355.041 28.637,355.010 28.691,355.010 29.167 M355.164 31.208 C 355.162 31.711,355.116 31.845,355.006 31.671 C 354.874 31.462,354.835 31.469,354.738 31.720 C 354.588 32.113,354.782 32.280,355.133 32.060 C 355.453 31.860,355.636 30.500,355.343 30.500 C 355.246 30.500,355.166 30.819,355.164 31.208 M362.041 31.505 C 361.835 31.588,361.561 31.616,361.433 31.567 C 361.305 31.518,361.151 31.557,361.090 31.655 C 361.030 31.753,361.041 31.843,361.115 31.855 C 361.705 31.948,362.000 31.933,362.000 31.811 C 362.000 31.608,364.624 31.630,364.750 31.833 C 364.886 32.053,365.602 32.046,366.022 31.822 C 366.231 31.710,366.428 31.701,366.552 31.800 C 366.918 32.089,369.461 32.165,369.686 31.894 C 369.995 31.521,372.268 31.643,372.204 32.029 C 372.177 32.194,372.305 32.355,372.517 32.422 C 372.844 32.526,372.868 32.618,372.782 33.453 C 372.698 34.265,372.714 34.334,372.922 34.060 C 373.123 33.793,373.157 33.788,373.161 34.021 C 373.164 34.170,373.054 34.386,372.917 34.500 C 372.590 34.771,372.594 35.939,372.923 36.570 C 373.062 36.838,373.112 37.101,373.032 37.154 C 372.769 37.330,372.818 39.125,373.089 39.229 C 373.223 39.281,373.333 39.480,373.333 39.671 C 373.333 39.863,373.258 39.973,373.167 39.917 C 372.900 39.752,372.974 40.271,373.250 40.500 C 373.471 40.683,373.499 40.238,373.493 36.645 L 373.486 32.583 372.675 31.958 L 371.864 31.333 367.140 31.344 C 364.542 31.350,362.248 31.422,362.041 31.505 M353.667 33.167 C 353.272 33.293,353.278 33.301,353.792 33.317 C 354.090 33.326,354.333 33.258,354.333 33.167 C 354.333 32.978,354.255 32.978,353.667 33.167 M354.667 33.167 C 354.667 33.258,354.779 33.333,354.917 33.333 C 355.054 33.333,355.167 33.258,355.167 33.167 C 355.167 33.075,355.054 33.000,354.917 33.000 C 354.779 33.000,354.667 33.075,354.667 33.167 M359.833 33.833 C 359.833 34.315,359.903 34.500,360.083 34.500 C 360.264 34.500,360.333 34.315,360.333 33.833 C 360.333 33.352,360.264 33.167,360.083 33.167 C 359.903 33.167,359.833 33.352,359.833 33.833 M373.248 34.958 C 373.217 35.119,373.186 35.344,373.179 35.458 C 373.172 35.573,373.092 35.667,373.000 35.667 C 372.768 35.667,372.791 35.109,373.033 34.867 C 373.295 34.605,373.314 34.613,373.248 34.958 M347.000 35.917 C 347.000 36.054,347.110 36.167,347.245 36.167 C 347.394 36.167,347.452 36.069,347.394 35.917 C 347.341 35.779,347.231 35.667,347.149 35.667 C 347.067 35.667,347.000 35.779,347.000 35.917 M352.000 37.672 C 352.000 37.862,352.157 37.926,352.958 38.065 C 353.604 38.176,353.671 37.965,353.075 37.693 C 352.549 37.454,352.000 37.443,352.000 37.672 M353.667 38.000 C 353.667 38.092,353.779 38.167,353.917 38.167 C 354.054 38.167,354.167 38.092,354.167 38.000 C 354.167 37.908,354.054 37.833,353.917 37.833 C 353.779 37.833,353.667 37.908,353.667 38.000 M377.433 37.956 C 377.226 38.163,377.326 41.802,377.542 41.903 C 377.708 41.981,377.708 42.019,377.542 42.097 C 377.396 42.165,377.333 42.678,377.333 43.797 C 377.333 44.975,377.383 45.351,377.519 45.214 C 377.635 45.098,377.681 44.553,377.640 43.756 C 377.591 42.780,377.620 42.544,377.765 42.742 C 378.110 43.214,378.167 43.013,378.167 41.333 C 378.167 40.296,378.102 39.667,377.994 39.667 C 377.884 39.667,377.861 39.373,377.929 38.858 C 378.031 38.088,377.772 37.617,377.433 37.956 M355.776 43.869 C 355.723 44.072,355.738 44.278,355.810 44.327 C 355.882 44.376,355.989 44.548,356.049 44.708 C 356.256 45.271,356.467 45.011,356.320 44.375 C 356.240 44.031,356.173 43.694,356.171 43.625 C 356.162 43.343,355.865 43.526,355.776 43.869 M372.226 44.292 C 372.159 44.551,371.975 44.574,370.549 44.500 L 368.948 44.417 368.706 44.995 C 368.317 45.928,368.616 47.319,369.208 47.331 C 369.277 47.332,369.333 46.790,369.333 46.125 L 369.333 44.917 370.817 44.974 C 372.311 45.032,373.000 44.778,373.000 44.167 C 373.000 43.875,372.305 43.987,372.226 44.292 M346.270 45.638 C 346.197 45.851,346.181 46.069,346.235 46.124 C 346.408 46.296,346.529 46.042,346.466 45.639 L 346.404 45.250 346.270 45.638 M364.111 47.944 C 364.050 48.006,364.000 48.268,364.000 48.528 C 364.000 48.788,363.925 49.000,363.833 49.000 C 363.742 49.000,363.667 49.112,363.667 49.250 C 363.667 49.387,363.567 49.500,363.445 49.500 C 363.323 49.500,363.123 49.688,363.000 49.917 C 362.754 50.376,361.891 50.511,361.739 50.114 C 361.685 49.975,361.337 49.888,360.790 49.876 C 360.314 49.866,359.898 49.777,359.865 49.679 C 359.778 49.418,358.489 49.447,358.542 49.708 C 358.572 49.862,358.217 49.917,357.197 49.917 C 356.049 49.917,355.782 49.967,355.647 50.208 C 355.493 50.483,355.723 50.500,359.486 50.500 C 363.455 50.500,363.490 50.497,363.687 50.128 C 363.796 49.924,363.987 49.656,364.110 49.533 C 364.233 49.410,364.333 48.977,364.333 48.571 C 364.333 47.820,364.308 47.748,364.111 47.944 M369.201 48.309 C 369.082 48.384,370.128 48.459,371.534 48.475 C 373.007 48.492,374.189 48.434,374.333 48.338 C 374.643 48.132,369.526 48.102,369.201 48.309 M369.333 48.833 C 369.333 48.925,369.483 49.000,369.667 49.000 C 369.850 49.000,370.000 48.925,370.000 48.833 C 370.000 48.742,369.850 48.667,369.667 48.667 C 369.483 48.667,369.333 48.742,369.333 48.833 M370.917 48.833 C 371.386 49.035,374.125 49.035,374.250 48.833 C 374.317 48.726,373.685 48.671,372.468 48.678 C 371.260 48.686,370.703 48.742,370.917 48.833 M351.955 54.100 C 351.895 54.161,351.920 54.351,352.012 54.522 C 352.278 55.019,357.918 54.999,358.048 54.500 C 358.133 54.176,358.053 54.167,355.331 54.167 C 353.789 54.167,352.423 54.127,352.297 54.078 C 352.170 54.029,352.016 54.039,351.955 54.100 M351.667 61.667 C 351.667 61.758,351.835 61.832,352.042 61.831 C 352.345 61.829,352.369 61.797,352.167 61.667 C 351.844 61.458,351.667 61.458,351.667 61.667 M353.379 66.301 C 352.855 66.635,353.165 67.833,353.776 67.833 C 354.126 67.833,354.039 67.368,353.667 67.250 C 353.327 67.142,353.247 66.975,353.442 66.780 C 353.502 66.721,353.643 66.799,353.757 66.955 C 353.935 67.198,354.002 67.206,354.242 67.006 C 354.494 66.797,354.510 66.820,354.404 67.243 C 354.313 67.602,354.340 67.692,354.518 67.634 C 354.856 67.523,354.896 66.753,354.580 66.438 C 354.293 66.151,353.719 66.085,353.379 66.301 M351.404 66.916 C 351.418 67.579,351.501 67.626,351.892 67.194 C 352.151 66.908,352.149 66.869,351.863 66.610 C 351.436 66.224,351.390 66.254,351.404 66.916 M350.667 67.633 C 350.667 68.361,351.636 68.588,352.074 67.963 C 352.217 67.759,352.333 67.534,352.333 67.463 C 352.333 67.217,351.869 67.334,351.764 67.606 C 351.667 67.858,351.637 67.858,351.358 67.606 C 350.963 67.248,350.667 67.260,350.667 67.633 " stroke="none" fill="#48b4d0" fill-rule="evenodd"></path></svg>