<svg width="141" height="55" viewBox="0 0 141 55" fill="none" xmlns="http://www.w3.org/2000/svg">
<path d="M21 19.9983C21 18.8718 21 17.9135 21 16.957C21.0018 12.1197 21.0036 7.28421 21.0072 2.44697C21.0072 0.905921 21.816 0.0750803 23.4337 0.0461962C25.8155 0.00371966 28.1991 -0.00987472 30.5809 0.00711592C32.0643 0.0173103 32.9537 0.87194 32.9859 2.29915C33.0199 3.82491 32.9805 5.35407 32.9895 6.88153C32.9913 7.27401 32.8517 7.57814 32.5761 7.87038C29.3354 11.2974 26.1036 14.7312 22.87 18.1633C22.3188 18.7478 21.8482 19.4036 21.0018 20L21 19.9983Z" fill="#F7AF0F"/>
<path d="M0.00178822 12.414C0.00178822 9.09807 3.81964e-07 5.78387 0.00178822 2.46791C0.00178822 0.964472 0.881406 0.0198009 2.39034 0.00757777C4.80214 -0.01163 7.21394 0.00583043 9.62394 0.0582152C11.1937 0.0931383 11.9803 0.948755 11.9821 2.51331C11.9875 7.36938 11.9821 12.2272 12 17.0833C12.0018 17.5547 11.8641 17.9109 11.5477 18.2567C8.41358 21.6774 5.29379 25.1103 2.16329 28.5346C1.55542 29.1981 1.49642 29.1719 1.18534 28.3285C0.370084 26.1179 0.0143025 23.8304 0.0053633 21.4888C-0.0035759 18.4645 0.00357644 15.4401 0.00357644 12.414H0H0.00178822Z" fill="#F7AF0F"/>
<path d="M32.2433 29.0608L32.2416 29.0642C30.6506 35.3178 24.1613 40 16.4 40C11.0974 40 6.7759 37.3035 3.88675 33.8333C3.87455 33.8179 3.86061 33.8009 3.84841 33.7838C3.87803 33.7719 3.90766 33.7566 3.93728 33.7412C3.69158 33.4958 3.45111 33.2418 3.2176 32.9759C3.21238 32.9708 3.20715 32.964 3.20192 32.9589C3.15836 32.9009 3.11654 32.8447 3.07472 32.7867C2.96319 32.5975 2.95796 32.4049 3.18798 32.1731C3.31693 32.0419 3.44414 31.9106 3.57309 31.7794L3.64802 31.701L5.30692 29.9744C5.30867 29.9914 5.31215 30.0084 5.31564 30.0238L12.5577 23.39C13.3976 22.594 14.2375 21.7947 15.0722 20.9919C15.5305 20.5504 15.71 20.6868 15.9051 21.1674C16.2658 22.0486 16.6509 22.9213 17.0117 23.8025C17.8324 25.8121 18.6479 27.8233 19.4582 29.8346C19.6638 30.3442 19.8607 30.5266 20.3399 30.0238C21.835 28.454 23.3789 26.9285 24.8828 25.3672C25.9882 24.219 32.5 17 32.9752 17C33.4504 17 33.2087 26.4939 32.2433 29.0608Z" fill="#A948BF"/>
<path d="M43.3 14.6291V28.0592H48.5777V31.1691H39.2701V14.6291H43.3Z" fill="url(#paint0_linear_315_26103)"/>
<path d="M47.6143 14.6291H60.4077V17.8575H56.0259V31.1709H51.9961V17.8575H47.6143V14.6291Z" fill="url(#paint1_linear_315_26103)"/>
<path d="M69.1952 14.6291C73.2474 14.6291 75.2743 16.9616 75.2743 19.8364C75.2743 21.9097 74.1433 23.8663 71.598 24.6197L75.4151 31.1709H70.8669L67.4274 24.9269H66.4611V31.1709H62.4312V14.6308H69.1935L69.1952 14.6291ZM68.96 17.9742H66.4628V22.0744H68.96C70.4687 22.0744 71.1741 21.2969 71.1741 20.0011C71.1741 18.7757 70.467 17.9742 68.96 17.9742Z" fill="url(#paint2_linear_315_26103)"/>
<path d="M88.0917 28.248H81.9181L80.9278 31.1691H76.7109L82.6956 14.6291H87.3606L93.3453 31.1691H89.0803L88.09 28.248H88.0917ZM85.0058 19.0829L82.9788 25.138H87.0551L85.0058 19.0829Z" fill="url(#paint3_linear_315_26103)"/>
<path d="M101.687 25.2324H99.1894V31.1709H95.1612V14.6308H101.688C105.741 14.6308 107.767 16.9169 107.767 19.9565C107.767 22.6889 105.905 25.2341 101.688 25.2341L101.687 25.2324ZM101.379 22.0281C102.982 22.0281 103.665 21.2266 103.665 19.9548C103.665 18.683 102.982 17.8815 101.379 17.8815H99.1876V22.0281H101.379Z" fill="url(#paint4_linear_315_26103)"/>
<path d="M118.158 28.248H111.984L110.994 31.1691H106.777L112.761 14.6291H117.426L123.411 31.1691H119.146L118.156 28.248H118.158ZM115.072 19.0829L113.045 25.138H117.121L115.072 19.0829Z" fill="url(#paint5_linear_315_26103)"/>
<path d="M140.094 22.8983C140.094 27.7983 136.7 31.1691 131.423 31.1691H125.225V14.6291H131.423C136.7 14.6291 140.094 17.9742 140.094 22.9V22.8983ZM131.164 27.6816C134.203 27.6816 135.993 25.9378 135.993 22.8983C135.993 19.8587 134.203 18.0686 131.164 18.0686H129.255V27.6816H131.164Z" fill="url(#paint6_linear_315_26103)"/>
<path d="M64 54.8247H65.7902V48.7078H70.6295V47.2662H65.7902V42.6883H71.7508V41.2468H64V54.8247Z" fill="white"/>
<path d="M73.9129 54.8247H75.7031V44.1494H73.9129V54.8247ZM74.8375 42.4156C75.4867 42.4156 76.0178 41.8896 76.0178 41.2078C76.0178 40.526 75.4867 40 74.8375 40C74.149 40 73.6178 40.526 73.6178 41.2078C73.6178 41.8896 74.149 42.4156 74.8375 42.4156Z" fill="white"/>
<path d="M86.6426 54.8247H88.4131V48.5325C88.4131 45.474 86.5049 43.9545 84.0066 43.9545C82.5508 43.9545 81.2525 44.5584 80.5443 45.6688V44.1494H78.7541V54.8247H80.5443V48.9221C80.5443 46.6234 81.8033 45.4935 83.6328 45.4935C85.4426 45.4935 86.6426 46.6039 86.6426 48.7857V54.8247Z" fill="white"/>
<path d="M90.6685 49.4481C90.6685 52.7597 92.8914 55 95.7636 55C97.7505 55 99.1472 53.987 99.7964 52.8377V54.8247H101.606V44.1494H99.7964V46.0974C99.1669 44.987 97.7898 43.974 95.7833 43.974C92.8914 43.974 90.6685 46.1169 90.6685 49.4481ZM99.7964 49.4675C99.7964 51.9805 98.1046 53.4416 96.1373 53.4416C94.1701 53.4416 92.498 51.961 92.498 49.4481C92.498 46.9351 94.1701 45.513 96.1373 45.513C98.1046 45.513 99.7964 46.9935 99.7964 49.4675Z" fill="white"/>
<path d="M112.52 54.8247H114.29V48.5325C114.29 45.474 112.382 43.9545 109.884 43.9545C108.428 43.9545 107.13 44.5584 106.422 45.6688V44.1494H104.631V54.8247H106.422V48.9221C106.422 46.6234 107.681 45.4935 109.51 45.4935C111.32 45.4935 112.52 46.6039 112.52 48.7857V54.8247Z" fill="white"/>
<path d="M116.546 49.4675C116.546 52.8571 118.729 55 121.798 55C124.474 55 126.224 53.5195 126.775 51.3961H124.847C124.454 52.7403 123.392 53.5 121.798 53.5C119.831 53.5 118.375 52.1169 118.375 49.4675C118.375 46.8571 119.831 45.474 121.798 45.474C123.392 45.474 124.474 46.2922 124.847 47.5779H126.775C126.224 45.3377 124.474 43.974 121.798 43.974C118.729 43.974 116.546 46.1169 116.546 49.4675Z" fill="white"/>
<path d="M133.748 45.474C135.597 45.474 137.171 46.6234 137.151 48.7078H130.344C130.541 46.6234 131.997 45.474 133.748 45.474ZM138.784 51.5325H136.856C136.462 52.6818 135.439 53.5 133.826 53.5C131.997 53.5 130.462 52.3117 130.325 50.1494H138.941C138.98 49.7792 139 49.4675 139 49.0779C139 46.1558 136.954 43.974 133.826 43.974C130.679 43.974 128.495 46.0974 128.495 49.4675C128.495 52.8571 130.757 55 133.826 55C136.502 55 138.233 53.4805 138.784 51.5325Z" fill="white"/>
<path d="M5 27.7803C5 27.7803 5.01569 27.6726 5.01569 27.6829C5.01395 27.6726 10.6818 22.4038 13.4922 19.2976C14.2959 18.4108 15.1014 17.5257 15.9801 16.5604C17.3086 19.6803 18.5883 21.6857 19.922 24.8142C25.0747 19.1489 30.2094 13.4665 35.4036 7.83922C35.9284 7.26855 35.9144 6.961 35.3443 6.51164C35.0915 6.31344 34.7934 6.10158 34.6609 5.66759C36.7338 5.12255 38.7859 4.58263 41 4C40.4107 6.15967 39.8546 8.19119 39.2984 10.2296C39.1624 10.1868 39.1014 10.1817 39.0578 10.151C38.6429 9.86904 38.3884 9.17876 37.8932 9.27444C37.4922 9.35133 37.1802 9.89979 36.8419 10.2501C32.7566 14.4893 28.7346 18.7888 24.6554 23.0338C23.1508 24.5989 21.6061 26.1281 20.1103 27.7017C19.6308 28.2057 19.4338 28.0229 19.2281 27.512C18.1747 24.8922 16 19 15.7535 19.2976C15.3859 18.3904 12.8832 20.5209 12.352 21.0262C11.8726 21.4807 10.9137 22.3914 10.9137 22.3914" fill="#A949BF"/>
<defs>
<linearGradient id="paint0_linear_315_26103" x1="39.5569" y1="26.4988" x2="49.9908" y2="26.4909" gradientUnits="userSpaceOnUse">
<stop stop-color="#FFB000"/>
<stop offset="1" stop-color="#FF49C7"/>
</linearGradient>
<linearGradient id="paint1_linear_315_26103" x1="48.0085" y1="26.5" x2="62.35" y2="26.4851" gradientUnits="userSpaceOnUse">
<stop stop-color="#FFB000"/>
<stop offset="1" stop-color="#FF49C7"/>
</linearGradient>
<linearGradient id="paint2_linear_315_26103" x1="62.8313" y1="26.5" x2="77.3864" y2="26.4847" gradientUnits="userSpaceOnUse">
<stop stop-color="#FFB000"/>
<stop offset="1" stop-color="#FF49C7"/>
</linearGradient>
<linearGradient id="paint3_linear_315_26103" x1="77.2234" y1="26.4988" x2="95.8708" y2="26.4736" gradientUnits="userSpaceOnUse">
<stop stop-color="#FFB000"/>
<stop offset="1" stop-color="#FF49C7"/>
</linearGradient>
<linearGradient id="paint4_linear_315_26103" x1="95.5496" y1="26.5005" x2="109.681" y2="26.486" gradientUnits="userSpaceOnUse">
<stop stop-color="#FFB000"/>
<stop offset="1" stop-color="#FF49C7"/>
</linearGradient>
<linearGradient id="paint5_linear_315_26103" x1="107.289" y1="26.4988" x2="125.937" y2="26.4736" gradientUnits="userSpaceOnUse">
<stop stop-color="#FFB000"/>
<stop offset="1" stop-color="#FF49C7"/>
</linearGradient>
<linearGradient id="paint6_linear_315_26103" x1="125.683" y1="26.4988" x2="142.351" y2="26.4786" gradientUnits="userSpaceOnUse">
<stop stop-color="#FFB000"/>
<stop offset="1" stop-color="#FF49C7"/>
</linearGradient>
</defs>
</svg>
